<svg width="47" height="47" viewBox="0 0 47 47" fill="none" xmlns="http://www.w3.org/2000/svg">
<rect x="0.655029" y="0.843887" width="45.67" height="45.6684" rx="17" fill="#535CB1"/>
<path d="M31.99 23.6781C31.99 24.0539 31.8459 24.4172 31.5764 24.6803C31.3132 24.9497 30.9498 25.1 30.5738 25.1H24.9093V30.7625C24.9093 31.1383 24.7589 31.5016 24.4894 31.7647C24.2263 32.0278 23.8691 32.1781 23.4931 32.1781C23.1172 32.1781 22.7537 32.0278 22.4905 31.7647C22.2211 31.5016 22.0707 31.1383 22.0707 30.7625V25.1H16.4061C16.0302 25.1 15.6667 24.9497 15.4036 24.6803C15.1404 24.4172 14.99 24.0539 14.99 23.6781C14.99 23.3023 15.1404 22.9452 15.4036 22.6759C15.6667 22.4128 16.0302 22.2625 16.4061 22.2625H22.0707V16.6C22.0707 16.2242 22.2211 15.8609 22.4905 15.5978C22.7537 15.3284 23.1172 15.1781 23.4931 15.1781C23.8691 15.1781 24.2263 15.3284 24.4894 15.5978C24.7589 15.8609 24.9093 16.2242 24.9093 16.6V22.2625H30.5738C30.9498 22.2625 31.3132 22.4128 31.5764 22.6759C31.8459 22.9452 31.99 23.3023 31.99 23.6781Z" fill="white"/>
</svg>
