<svg xmlns="http://www.w3.org/2000/svg" viewBox="0 0 824.97 283.09"><defs><style>.cls-1{fill:none;}.cls-2{fill:#fff;}</style></defs><g id="Layer_2" data-name="Layer 2"><g id="Layer_1-2" data-name="Layer 1"><rect class="cls-1" width="824.97" height="283.09"/><path class="cls-2" d="M260.62,228.59c-25.34,0-38.72-16.19-38.72-34.73,0-23,19-33.78,38.25-38l34.72-7.51c-1.64-9.15-7.74-13.61-18.54-13.61-13.13,0-26.51,8.68-34.95,15.95L221.9,128.41c11.5-11.74,31.91-25.58,58.66-25.58,39.18,0,52.79,24.17,52.79,48.57v74.37H297.22V211.23C289.24,222.25,277,228.59,260.62,228.59Zm11.73-29.8c11.49,0,22.75-8.21,22.75-22v-3.29l-21.35,4.69c-8.21,1.88-12.43,5.4-12.43,11C261.32,196.21,265.31,198.79,272.35,198.79Z"/><path class="cls-2" d="M407.72,228.59c-24.4,0-43.17-6.81-57.48-16.9l16.66-26.51c12,9.15,25.33,14.08,38.71,14.08,10.32,0,14.31-4.22,14.31-8.68s-3.52-6.81-11.73-8.68l-16.89-3.76c-16.43-3.75-34.49-13.13-34.49-37.3,0-18.07,16.19-38,48.56-38,23,0,38.71,6.81,50.44,14.31l-16.18,27.45c-7.28-4.69-19.24-12-33.79-12-8.44,0-12.67,2.81-12.67,7.27,0,3.52,2.82,5.63,8.45,7l19.71,4.69c22.05,5.16,35.42,16,35.42,35.43C456.75,208.88,441,228.59,407.72,228.59Z"/><path class="cls-2" d="M472,165.71c0-36.84,25.81-62.88,61.71-62.88,32.61,0,55.84,21.82,55.84,57.72a135.53,135.53,0,0,1-.71,14.78H510.71c2.82,18.06,14.08,22.52,27.45,22.52,11.27,0,22.06-6.1,28.39-12.67l20.65,23c-13.37,15-30.74,20.41-52.79,20.41C497.11,228.59,472,205.13,472,165.71Zm39.42-14.31h39.65c-.47-15.72-9.39-19.94-18.07-19.94C523.62,131.46,514.7,136.15,511.42,151.4Z"/><path class="cls-2" d="M650.54,54.5V225.77H611.13V54.5Z"/><path class="cls-2" d="M717.18,54.5V225.77H677.76V54.5Z"/><path class="cls-2" d="M152.43,61.54H76.31a4.78,4.78,0,0,0-4.79,4.79V221a4.78,4.78,0,0,0,4.79,4.79h31.47a4.78,4.78,0,0,0,4.79-4.79v-40.7h39.86a59.37,59.37,0,0,0,0-118.74Zm23.39,53.18a36.46,36.46,0,0,1-71.65,0,5.71,5.71,0,0,1,5.62-6.75h0a5.74,5.74,0,0,1,5.62,4.71,25,25,0,0,0,49.17,0,5.71,5.71,0,1,1,11.24,2Z"/><path class="cls-2" d="M741.88,207.1c2.53,0,4.24,1.66,4.24,3.58a3.86,3.86,0,0,1-2.69,3.7l2.67,4.55h-1.91l-2.52-4.29h-3v4.29h-1.6V207.1Zm-3.23,1.47v4.61h3.26a2.45,2.45,0,0,0,2.57-2.48,2.32,2.32,0,0,0-2.57-2.13Z"/><path class="cls-2" d="M741.33,225.82a12.13,12.13,0,1,1,12.12-12.12A12.14,12.14,0,0,1,741.33,225.82Zm0-22.84A10.72,10.72,0,1,0,752,213.7,10.73,10.73,0,0,0,741.33,203Z"/></g></g></svg>